<svg width="160" height="53" viewBox="0 0 160 53" fill="none" xmlns="http://www.w3.org/2000/svg">
<path d="M12.8878 33.152C12.0878 33.152 11.3358 33.088 10.6318 32.96C9.92775 32.864 9.30375 32.688 8.75975 32.432C7.95975 32.048 7.25575 31.504 6.64775 30.8C6.03975 30.096 5.55975 29.328 5.20775 28.496C4.91975 27.76 4.77575 27.088 4.77575 26.48C4.77575 25.392 5.07975 24.464 5.68775 23.696C6.32775 22.896 7.09575 22.224 7.99175 21.68C8.91975 21.104 9.79975 20.656 10.6318 20.336C10.9838 20.176 11.1438 20.16 11.1118 20.288C11.1118 20.416 11.0318 20.512 10.8718 20.576C10.0718 20.928 9.28775 21.504 8.51975 22.304C7.75175 23.104 7.12775 24 6.64775 24.992C6.16775 25.984 5.92775 26.96 5.92775 27.92C5.92775 29.04 6.35975 30 7.22375 30.8C8.11975 31.6 9.63975 32 11.7838 32C12.8398 32 13.9598 31.872 15.1438 31.616C16.3598 31.328 17.5438 30.992 18.6958 30.608C19.8798 30.192 20.9518 29.792 21.9118 29.408C22.3598 29.216 22.9998 28.912 23.8318 28.496C24.6958 28.048 25.6078 27.536 26.5677 26.96C27.5598 26.352 28.5038 25.712 29.3998 25.04C30.3278 24.368 31.0798 23.696 31.6558 23.024C32.2318 22.352 32.5198 21.728 32.5198 21.152C32.5198 20.608 32.1838 20.192 31.5118 19.904C30.8718 19.584 30.0558 19.36 29.0638 19.232C28.1038 19.104 27.1438 19.04 26.1838 19.04C24.7758 19.04 23.7518 19.12 23.1118 19.28C22.5998 19.408 22.0398 19.696 21.4318 20.144C20.8238 20.56 20.2638 20.768 19.7518 20.768C19.4318 20.768 19.1598 20.656 18.9358 20.432C18.7438 20.208 18.6478 19.952 18.6478 19.664C18.6478 19.408 18.7438 19.168 18.9358 18.944C19.1598 18.688 19.5278 18.512 20.0398 18.416C20.3598 18.352 20.6958 18.32 21.0478 18.32C21.4318 18.288 21.8158 18.256 22.1998 18.224C22.5838 18.192 22.9518 18.16 23.3038 18.128C23.6878 18.064 24.0398 17.968 24.3598 17.84C25.6078 17.392 26.8718 16.864 28.1518 16.256C29.4318 15.616 30.6318 14.864 31.7518 14C32.8718 13.104 33.7998 12.064 34.5358 10.88C34.9198 10.208 35.1118 9.552 35.1118 8.912C35.1118 8.112 34.7758 7.472 34.1038 6.992C33.4318 6.48 32.5678 6.096 31.5118 5.84C30.4558 5.552 29.3358 5.36 28.1518 5.264C27.5118 5.776 27.0958 6.16 26.9038 6.416C26.1358 7.248 25.1918 8.304 24.0718 9.584C22.9518 10.832 21.7838 12.224 20.5678 13.76C19.3518 15.264 18.2158 16.816 17.1598 18.416C16.1038 19.984 15.2398 21.536 14.5678 23.072C13.8958 24.608 13.5598 26.016 13.5598 27.296C13.5598 27.872 13.6558 28.416 13.8478 28.928C14.0398 29.44 14.4878 29.728 15.1918 29.792C15.3198 29.792 15.3518 29.84 15.2878 29.936C15.2558 30 15.1598 30.032 14.9998 30.032C14.2958 30.032 13.6718 29.68 13.1278 28.976C12.5838 28.272 12.3118 27.376 12.3118 26.288C12.3118 25.232 12.5838 24 13.1278 22.592C13.7038 21.184 14.4558 19.696 15.3838 18.128C16.3118 16.56 17.3358 14.992 18.4558 13.424C19.6078 11.824 20.7758 10.304 21.9598 8.864C23.1438 7.424 24.2478 6.16 25.2718 5.072C24.4398 5.04 23.4478 5.056 22.2958 5.12C21.1438 5.152 19.9758 5.2 18.7918 5.264C17.6398 5.328 16.5998 5.408 15.6718 5.504C14.7758 5.568 14.1518 5.632 13.7998 5.696C10.0238 6.4 7.09575 7.248 5.01575 8.24C2.96775 9.2 1.94375 10.192 1.94375 11.216C1.94375 11.408 1.95975 11.552 1.99175 11.648C2.05575 11.808 2.16775 12 2.32775 12.224C2.51975 12.416 2.67975 12.56 2.80775 12.656C2.83975 12.688 2.85575 12.736 2.85575 12.8C2.85575 12.864 2.82375 12.928 2.75975 12.992C2.69575 13.056 2.61575 13.072 2.51975 13.04C1.75175 12.624 1.14375 12.048 0.69575 11.312C0.27975 10.576 0.0717501 10.016 0.0717501 9.632C0.0717501 8.832 0.69575 8.096 1.94375 7.424C3.19175 6.752 4.80775 6.16 6.79175 5.648C8.77575 5.136 10.8718 4.752 13.0798 4.496C14.2638 4.336 15.6078 4.208 17.1118 4.112C18.6478 4.016 20.2318 3.968 21.8638 3.968C23.2398 3.968 24.5678 4.016 25.8478 4.112L26.2318 3.728C26.0078 3.504 25.8958 3.296 25.8958 3.104C25.8958 2.912 25.9758 2.736 26.1358 2.576C26.2958 2.384 26.4878 2.176 26.7118 1.952C27.0638 1.632 27.4958 1.312 28.0078 0.991999C28.5198 0.671999 28.9038 0.367999 29.1598 0.079999C29.6078 0.111999 30.0878 0.239999 30.5998 0.464C31.1438 0.655999 31.4158 1.008 31.4158 1.52C31.4158 1.584 31.3998 1.664 31.3678 1.76C31.3678 1.824 31.3518 1.904 31.3198 2C31.2558 2.224 31.0158 2.544 30.5998 2.96C30.2158 3.376 29.7038 3.872 29.0638 4.448C29.9598 4.64 30.8878 4.88 31.8478 5.168C32.8398 5.456 33.7038 5.888 34.4398 6.464C35.1758 7.008 35.6078 7.792 35.7358 8.816C36.2478 9.52 36.5038 10.208 36.5038 10.88C36.5038 11.84 36.1038 12.736 35.3038 13.568C34.5038 14.4 33.5118 15.136 32.3278 15.776C31.1758 16.384 30.0078 16.88 28.8238 17.264C27.6718 17.648 26.7278 17.872 25.9918 17.936C25.8638 17.968 25.7998 18.016 25.7998 18.08C25.8318 18.144 25.9438 18.176 26.1358 18.176C26.9678 18.176 27.9118 18.272 28.9678 18.464C30.0238 18.624 30.9518 18.88 31.7518 19.232C32.5838 19.584 33.0158 20.032 33.0478 20.576V20.624C33.0478 20.784 33.1118 20.944 33.2398 21.104C33.3678 21.232 33.4798 21.36 33.5758 21.488C33.9918 21.904 34.1998 22.304 34.1998 22.688C34.1998 22.976 34.1198 23.248 33.9598 23.504C33.0638 24.976 31.6558 26.416 29.7358 27.824C27.8478 29.2 25.7198 30.32 23.3518 31.184C22.5518 31.472 21.5598 31.76 20.3758 32.048C19.1918 32.368 17.9438 32.624 16.6318 32.816C15.3518 33.04 14.1038 33.152 12.8878 33.152ZM38.492 32.72C37.564 32.72 36.764 32.368 36.092 31.664C35.452 30.96 35.132 30 35.132 28.784C35.132 28.336 35.18 27.856 35.276 27.344C35.404 26.8 35.58 26.24 35.804 25.664C36.284 24.544 36.94 23.472 37.772 22.448C38.636 21.424 39.564 20.576 40.556 19.904C41.548 19.232 42.492 18.896 43.388 18.896C43.484 18.896 43.596 18.944 43.724 19.04C43.852 19.104 43.948 19.168 44.012 19.232L44.252 19.472C44.636 19.856 45.004 20.08 45.356 20.144C45.74 20.208 46.044 20.4 46.268 20.72C46.652 21.328 46.844 22.064 46.844 22.928C46.844 24.112 46.476 25.408 45.74 26.816C45.036 28.192 44.076 29.44 42.86 30.56C42.252 31.104 41.58 31.6 40.844 32.048C40.108 32.496 39.324 32.72 38.492 32.72ZM38.828 32.192C39.596 32.192 40.38 31.936 41.18 31.424C41.98 30.88 42.716 30.176 43.388 29.312C44.092 28.448 44.684 27.536 45.164 26.576C45.676 25.616 45.996 24.704 46.124 23.84C46.156 23.68 46.172 23.52 46.172 23.36C46.204 23.168 46.22 23.008 46.22 22.88C46.22 22.016 46.012 21.392 45.596 21.008C45.18 20.592 44.684 20.384 44.108 20.384C43.5 20.384 42.876 20.576 42.236 20.96C41.628 21.312 40.86 22.048 39.932 23.168C39.004 24.256 38.172 25.392 37.436 26.576C36.764 27.632 36.428 28.656 36.428 29.648C36.428 30.352 36.62 30.96 37.004 31.472C37.42 31.952 38.028 32.192 38.828 32.192ZM34.844 38.432C34.62 38.432 34.412 38.32 34.22 38.096C34.06 37.904 33.98 37.648 33.98 37.328C33.98 36.72 34.284 36.208 34.892 35.792C35.532 35.376 36.108 35.168 36.62 35.168C36.908 35.168 37.052 35.344 37.052 35.696C37.052 36.08 36.94 36.448 36.716 36.8C36.588 37.056 36.348 37.392 35.996 37.808C35.676 38.224 35.292 38.432 34.844 38.432ZM50.108 16.496C49.916 16.496 49.628 16.336 49.244 16.016C48.86 15.664 48.46 15.264 48.044 14.816C47.66 14.368 47.308 13.968 46.988 13.616C46.796 13.744 46.428 13.968 45.884 14.288C45.34 14.608 44.748 14.928 44.108 15.248C43.468 15.568 42.892 15.856 42.38 16.112C41.868 16.336 41.548 16.448 41.42 16.448H41.324C41.228 16.448 41.18 16.416 41.18 16.352C41.18 16.288 41.228 16.208 41.324 16.112C41.452 15.984 41.564 15.888 41.66 15.824C42.524 15.216 43.388 14.592 44.252 13.952C45.116 13.312 46.14 12.576 47.324 11.744C47.42 11.648 47.564 11.6 47.756 11.6C47.98 11.6 48.14 11.696 48.236 11.888C48.236 11.92 48.348 12.144 48.572 12.56C48.796 12.976 49.036 13.456 49.292 14C49.58 14.512 49.82 14.96 50.012 15.344C50.204 15.696 50.284 15.856 50.252 15.824C50.316 15.888 50.348 15.984 50.348 16.112C50.348 16.368 50.268 16.496 50.108 16.496ZM62.381 32.72C60.973 32.72 59.693 32.384 58.541 31.712C57.421 31.04 56.861 30.016 56.861 28.64C56.861 28.192 56.941 27.68 57.101 27.104C57.293 26.432 57.581 25.952 57.965 25.664C58.189 25.44 58.285 25.392 58.253 25.52C58.253 25.616 58.221 25.696 58.157 25.76C57.837 26.112 57.677 26.608 57.677 27.248C57.677 28.56 58.189 29.488 59.213 30.032C60.237 30.576 61.389 30.848 62.669 30.848C64.397 30.848 65.821 30.528 66.941 29.888C68.861 28.8 69.821 27.616 69.821 26.336C69.821 26.048 69.741 25.744 69.581 25.424C69.421 25.104 69.197 24.8 68.909 24.512C68.621 24.192 68.301 23.872 67.949 23.552C67.021 22.72 66.045 21.936 65.021 21.2C63.997 20.464 63.069 19.632 62.237 18.704C61.725 18.128 61.309 17.504 60.989 16.832C60.701 16.128 60.557 15.36 60.557 14.528C60.557 13.184 60.861 11.856 61.469 10.544C62.109 9.232 62.957 8 64.013 6.848C65.101 5.696 66.301 4.688 67.613 3.824C68.925 2.928 70.269 2.24 71.645 1.76C73.021 1.248 74.333 0.991999 75.581 0.991999C76.253 0.991999 77.005 1.088 77.837 1.28C78.669 1.44 79.341 1.696 79.853 2.048C80.589 2.592 80.957 3.296 80.957 4.16C80.957 4.768 80.765 5.36 80.381 5.936C79.997 6.512 79.501 6.944 78.893 7.232C78.893 7.232 78.845 7.216 78.749 7.184C78.685 7.12 78.717 7.056 78.845 6.992C79.197 6.8 79.501 6.512 79.757 6.128C80.045 5.744 80.189 5.344 80.189 4.928C80.189 4.608 80.109 4.352 79.949 4.16C79.629 3.712 79.069 3.344 78.269 3.056C77.501 2.768 76.797 2.624 76.157 2.624C74.621 2.624 73.085 2.976 71.549 3.68C70.013 4.384 68.605 5.328 67.325 6.512C66.045 7.696 65.005 9.04 64.205 10.544C63.437 12.048 63.053 13.6 63.053 15.2C63.053 16.224 63.245 17.104 63.629 17.84C64.013 18.544 64.509 19.168 65.117 19.712C65.725 20.256 66.365 20.784 67.037 21.296C67.741 21.808 68.381 22.368 68.957 22.976C69.373 23.392 69.693 23.872 69.917 24.416C70.173 24.928 70.301 25.536 70.301 26.24C70.301 27.392 69.933 28.448 69.197 29.408C68.493 30.336 67.629 31.088 66.605 31.664C65.293 32.368 63.885 32.72 62.381 32.72ZM74.2216 32.144C73.5176 32.144 72.9736 31.984 72.5896 31.664C72.2376 31.344 72.0936 30.928 72.1576 30.416C72.2216 30.064 72.3176 29.664 72.4456 29.216C72.5736 28.768 72.7336 28.32 72.9256 27.872L74.0776 25.184C74.0456 25.12 74.0136 25.072 73.9816 25.04C73.9816 24.976 73.9816 24.928 73.9816 24.896C73.9496 24.768 73.9656 24.656 74.0296 24.56C74.8616 23.28 75.6296 22.208 76.3336 21.344C77.0376 20.48 77.5016 20.048 77.7256 20.048C78.1736 20.048 78.7016 20.352 79.3096 20.96C78.8936 21.472 78.4616 22.048 78.0136 22.688C77.5656 23.296 77.1336 23.92 76.7176 24.56C76.2696 25.232 75.7896 25.968 75.2776 26.768C74.7976 27.536 74.4616 28.24 74.2696 28.88C74.0776 29.456 73.9816 29.904 73.9816 30.224C73.9816 30.672 74.1416 30.896 74.4616 30.896C74.8776 30.896 75.4856 30.464 76.2856 29.6C76.8296 29.024 77.4216 28.32 78.0616 27.488C78.7336 26.624 79.3736 25.76 79.9816 24.896C80.6216 24 81.2136 23.168 81.7576 22.4C82.3336 21.6 82.8136 20.96 83.1976 20.48C83.5496 20.032 83.8696 19.808 84.1576 19.808C84.5736 19.808 85.0536 20.16 85.5976 20.864C85.1496 21.504 84.6056 22.336 83.9656 23.36C83.3256 24.352 82.7336 25.376 82.1896 26.432C81.6776 27.456 81.3416 28.368 81.1816 29.168C81.1496 29.296 81.1176 29.424 81.0856 29.552C81.0856 29.68 81.0856 29.824 81.0856 29.984C81.0856 30.912 81.3256 31.376 81.8056 31.376C82.0616 31.376 82.3656 31.232 82.7176 30.944C83.1016 30.656 83.4696 30.32 83.8216 29.936C84.1736 29.552 84.4456 29.232 84.6376 28.976C85.6616 27.6 86.6376 26.176 87.5656 24.704C87.7576 24.416 87.8856 24.272 87.9496 24.272C88.0136 24.272 88.0296 24.336 87.9976 24.464C87.9976 24.56 87.9816 24.64 87.9496 24.704C87.3096 25.76 86.5576 26.912 85.6936 28.16C84.8616 29.408 84.0296 30.432 83.1976 31.232C82.7496 31.68 82.3016 31.904 81.8536 31.904C80.9896 31.904 80.3496 31.696 79.9336 31.28C79.5176 30.864 79.3096 30.4 79.3096 29.888C79.3096 29.568 79.3576 29.232 79.4536 28.88C79.5496 28.496 79.6616 28.112 79.7896 27.728L81.0856 24.32C80.6056 24.928 80.2056 25.44 79.8856 25.856C79.5656 26.24 79.2776 26.608 79.0216 26.96C78.7976 27.28 78.5416 27.648 78.2536 28.064C77.9656 28.448 77.6616 28.832 77.3416 29.216C76.7336 30.016 76.1416 30.704 75.5656 31.28C74.9896 31.856 74.5416 32.144 74.2216 32.144ZM85.0696 21.632C84.8136 21.632 84.5256 21.568 84.2056 21.44C83.8856 21.28 83.6936 21.12 83.6296 20.96C83.5976 20.896 83.5656 20.832 83.5336 20.768C83.5016 20.672 83.4856 20.576 83.4856 20.48C83.4856 20.352 83.5336 20.288 83.6296 20.288C83.6616 20.288 83.7416 20.384 83.8696 20.576C83.9656 20.704 84.0776 20.816 84.2056 20.912C84.3656 20.976 84.6536 21.008 85.0696 21.008C85.4216 21.008 85.7576 20.848 86.0776 20.528C86.3976 20.208 86.5256 19.696 86.4616 18.992V18.752C86.4616 18.496 86.5096 18.368 86.6056 18.368C86.9576 18.368 87.1976 18.496 87.3256 18.752C87.5496 19.2 87.6616 19.6 87.6616 19.952C87.6616 20.56 87.3736 20.992 86.7976 21.248C86.2536 21.504 85.6776 21.632 85.0696 21.632ZM87.9091 32.144C87.2051 32.144 86.6611 31.984 86.2771 31.664C85.9251 31.344 85.7811 30.928 85.8451 30.416C85.9091 30.064 86.0051 29.664 86.1331 29.216C86.2611 28.768 86.4211 28.32 86.6131 27.872L87.7651 25.184C87.7331 25.12 87.7011 25.072 87.6691 25.04C87.6691 24.976 87.6691 24.928 87.6691 24.896C87.6371 24.768 87.6531 24.656 87.7171 24.56C88.5491 23.28 89.3171 22.208 90.0211 21.344C90.7251 20.48 91.1891 20.048 91.4131 20.048C91.8611 20.048 92.3891 20.352 92.9971 20.96C92.5811 21.472 92.1491 22.048 91.7011 22.688C91.2531 23.296 90.8211 23.92 90.4051 24.56C89.9571 25.232 89.4771 25.968 88.9651 26.768C88.4851 27.536 88.1491 28.24 87.9571 28.88C87.7651 29.456 87.6691 29.904 87.6691 30.224C87.6691 30.672 87.8291 30.896 88.1491 30.896C88.5651 30.896 89.1731 30.464 89.9731 29.6C90.5171 29.024 91.1091 28.32 91.7491 27.488C92.4211 26.624 93.0611 25.76 93.6691 24.896C94.3091 24 94.9011 23.168 95.4451 22.4C96.0211 21.6 96.5011 20.96 96.8851 20.48C97.2371 20.032 97.5571 19.808 97.8451 19.808C98.2611 19.808 98.7411 20.16 99.2851 20.864C98.8371 21.504 98.2931 22.336 97.6531 23.36C97.0131 24.352 96.4211 25.376 95.8771 26.432C95.3651 27.456 95.0291 28.368 94.8691 29.168C94.8371 29.296 94.8051 29.424 94.7731 29.552C94.7731 29.68 94.7731 29.824 94.7731 29.984C94.7731 30.912 95.0131 31.376 95.4931 31.376C95.7491 31.376 96.0531 31.232 96.4051 30.944C96.7891 30.656 97.1571 30.32 97.5091 29.936C97.8611 29.552 98.1331 29.232 98.3251 28.976C99.3491 27.6 100.325 26.176 101.253 24.704C101.445 24.416 101.573 24.272 101.637 24.272C101.701 24.272 101.717 24.336 101.685 24.464C101.685 24.56 101.669 24.64 101.637 24.704C100.997 25.76 100.245 26.912 99.3811 28.16C98.5491 29.408 97.7171 30.432 96.8851 31.232C96.4371 31.68 95.9891 31.904 95.5411 31.904C94.6771 31.904 94.0371 31.696 93.6211 31.28C93.2051 30.864 92.9971 30.4 92.9971 29.888C92.9971 29.568 93.0451 29.232 93.1411 28.88C93.2371 28.496 93.3491 28.112 93.4771 27.728L94.7731 24.32C94.2931 24.928 93.8931 25.44 93.5731 25.856C93.2531 26.24 92.9651 26.608 92.7091 26.96C92.4851 27.28 92.2291 27.648 91.9411 28.064C91.6531 28.448 91.3491 28.832 91.0291 29.216C90.4211 30.016 89.8291 30.704 89.2531 31.28C88.6771 31.856 88.2291 32.144 87.9091 32.144ZM148.347 12.368C148.219 12.368 148.155 12.336 148.155 12.272C148.155 12.176 148.267 12.064 148.491 11.936C149.195 11.488 149.867 10.864 150.507 10.064C151.179 9.232 151.515 8.32 151.515 7.328C151.515 6.56 151.227 5.952 150.651 5.504C150.107 5.056 149.403 4.72 148.539 4.496C147.707 4.24 146.875 4.08 146.043 4.016C145.211 3.92 144.523 3.872 143.979 3.872C141.163 3.872 138.427 4.176 135.771 4.784C133.115 5.36 130.507 6.048 127.947 6.848C125.387 7.648 122.795 8.4 120.171 9.104C117.579 9.808 114.891 10.288 112.107 10.544C110.827 10.672 109.819 10.336 109.083 9.536C108.379 8.704 108.027 7.728 108.027 6.608C108.027 6.16 108.331 5.664 108.939 5.12C109.579 4.544 110.395 3.984 111.387 3.44C112.379 2.896 113.435 2.4 114.555 1.952C115.707 1.472 116.827 1.088 117.915 0.799998C119.003 0.511998 119.947 0.367998 120.747 0.367998H120.891C121.051 0.367998 121.211 0.383998 121.371 0.415998C121.563 0.447999 121.659 0.495999 121.659 0.559999C121.659 0.655999 121.403 0.751999 120.891 0.847998C120.347 0.943998 119.595 1.136 118.635 1.424C117.675 1.712 116.651 2.064 115.563 2.48C114.475 2.896 113.435 3.36 112.443 3.872C111.451 4.352 110.635 4.848 109.995 5.36C109.355 5.84 109.035 6.304 109.035 6.752C109.035 7.232 109.483 7.6 110.379 7.856C111.275 8.112 112.411 8.24 113.787 8.24C116.187 8.24 118.651 7.952 121.179 7.376C123.707 6.768 126.251 6.08 128.811 5.312C131.403 4.512 133.979 3.824 136.539 3.248C139.131 2.64 141.643 2.336 144.075 2.336C145.291 2.336 146.491 2.432 147.675 2.624C148.155 2.688 148.651 2.768 149.163 2.864C149.675 2.96 150.139 3.136 150.555 3.392C151.003 3.616 151.355 3.936 151.611 4.352C151.867 4.736 151.947 5.28 151.851 5.984C152.011 6.24 152.203 6.624 152.427 7.136C152.683 7.616 152.811 8.128 152.811 8.672C152.811 9.056 152.699 9.424 152.475 9.776C152.251 10.128 151.819 10.432 151.179 10.688L150.123 11.12C149.963 11.184 149.723 11.376 149.403 11.696C149.115 11.984 148.891 12.176 148.731 12.272C148.603 12.336 148.475 12.368 148.347 12.368ZM124.923 34.976C123.995 34.976 123.339 34.592 122.955 33.824C122.603 33.088 122.427 32.384 122.427 31.712C122.427 30.496 122.763 29.072 123.435 27.44C124.139 25.776 125.035 24.032 126.123 22.208C127.243 20.384 128.427 18.608 129.675 16.88C130.955 15.152 132.187 13.584 133.371 12.176C134.555 10.768 135.547 9.68 136.347 8.912C136.155 8.656 136.059 8.416 136.059 8.192C136.059 7.808 136.251 7.424 136.635 7.04C137.019 6.656 137.451 6.32 137.931 6.032C138.411 5.712 138.779 5.456 139.035 5.264C139.483 5.296 139.979 5.424 140.523 5.648C141.067 5.872 141.339 6.224 141.339 6.704C141.339 7.184 141.067 7.68 140.523 8.192C140.011 8.704 139.595 9.104 139.275 9.392C139.051 9.616 138.811 9.824 138.555 10.016C138.331 10.208 138.107 10.4 137.883 10.592C137.659 10.784 137.451 10.976 137.259 11.168C137.099 11.328 136.955 11.472 136.827 11.6C136.027 12.432 135.051 13.488 133.899 14.768C132.779 16.016 131.627 17.392 130.443 18.896C129.259 20.4 128.155 21.952 127.131 23.552C126.107 25.152 125.275 26.72 124.635 28.256C123.995 29.76 123.675 31.152 123.675 32.432C123.675 32.944 123.771 33.408 123.963 33.824C124.187 34.272 124.571 34.576 125.115 34.736C125.179 34.768 125.227 34.784 125.259 34.784C125.291 34.816 125.307 34.832 125.307 34.832C125.307 34.928 125.179 34.976 124.923 34.976ZM133.697 32.528C133.025 32.528 132.513 32.208 132.161 31.568C131.841 30.896 131.681 30.32 131.681 29.84C131.681 28.72 132.017 27.552 132.689 26.336C133.361 25.12 134.209 23.968 135.233 22.88C136.289 21.792 137.393 20.912 138.545 20.24C139.697 19.568 140.769 19.232 141.761 19.232C142.049 19.232 142.369 19.36 142.721 19.616C143.105 19.84 143.457 20.208 143.777 20.72C143.841 20.784 143.921 20.928 144.017 21.152C144.113 21.344 144.113 21.52 144.017 21.68L143.969 21.584C143.905 21.424 143.761 21.296 143.537 21.2C143.313 21.072 142.977 21.008 142.529 21.008C141.793 21.008 140.961 21.264 140.033 21.776C139.137 22.288 138.225 22.976 137.297 23.84C136.401 24.704 135.585 25.648 134.849 26.672C134.113 27.696 133.569 28.736 133.217 29.792C132.993 30.336 132.881 30.8 132.881 31.184C132.881 31.664 133.057 31.904 133.409 31.904C133.665 31.904 133.969 31.776 134.321 31.52C134.993 31.008 135.697 30.352 136.433 29.552C137.169 28.752 137.873 27.92 138.545 27.056C139.249 26.192 139.857 25.392 140.369 24.656C140.913 23.92 141.297 23.376 141.521 23.024C141.617 22.896 141.729 22.832 141.857 22.832C142.017 22.8 142.209 22.784 142.433 22.784C143.073 22.784 143.473 22.896 143.633 23.12C143.825 23.312 143.841 23.52 143.681 23.744C143.265 24.352 142.817 25.056 142.337 25.856C141.889 26.656 141.489 27.44 141.137 28.208C140.817 28.976 140.657 29.664 140.657 30.272C140.657 30.752 140.849 30.992 141.233 30.992C141.585 30.992 141.969 30.784 142.385 30.368C142.769 30.016 143.217 29.504 143.729 28.832C144.273 28.16 144.801 27.456 145.313 26.72C145.857 25.984 146.305 25.344 146.657 24.8C146.785 24.64 146.881 24.576 146.945 24.608C147.041 24.608 147.041 24.704 146.945 24.896C146.433 25.696 145.905 26.528 145.361 27.392C144.817 28.224 144.241 29.008 143.633 29.744C142.481 31.216 141.617 31.952 141.041 31.952C140.529 31.952 140.049 31.792 139.601 31.472C139.153 31.152 138.929 30.688 138.929 30.08C138.929 29.44 139.057 28.704 139.313 27.872C139.601 27.008 139.857 26.336 140.081 25.856C139.409 26.88 138.641 27.904 137.777 28.928C136.913 29.952 136.097 30.816 135.329 31.52C134.593 32.192 134.049 32.528 133.697 32.528ZM135.281 38.432C135.057 38.432 134.849 38.32 134.657 38.096C134.497 37.904 134.417 37.648 134.417 37.328C134.417 36.72 134.721 36.208 135.329 35.792C135.969 35.376 136.545 35.168 137.057 35.168C137.345 35.168 137.489 35.344 137.489 35.696C137.489 36.08 137.377 36.448 137.153 36.8C137.025 37.056 136.785 37.392 136.433 37.808C136.113 38.224 135.729 38.432 135.281 38.432ZM147.329 16.496C147.137 16.496 146.849 16.336 146.465 16.016C146.081 15.664 145.681 15.264 145.265 14.816C144.881 14.368 144.529 13.968 144.209 13.616C144.017 13.744 143.649 13.968 143.105 14.288C142.561 14.608 141.969 14.928 141.329 15.248C140.689 15.568 140.113 15.856 139.601 16.112C139.089 16.336 138.769 16.448 138.641 16.448H138.545C138.449 16.448 138.401 16.416 138.401 16.352C138.401 16.288 138.449 16.208 138.545 16.112C138.673 15.984 138.785 15.888 138.881 15.824C139.745 15.216 140.609 14.592 141.473 13.952C142.337 13.312 143.361 12.576 144.545 11.744C144.641 11.648 144.785 11.6 144.977 11.6C145.201 11.6 145.361 11.696 145.457 11.888C145.457 11.92 145.569 12.144 145.793 12.56C146.017 12.976 146.257 13.456 146.513 14C146.801 14.512 147.041 14.96 147.233 15.344C147.425 15.696 147.505 15.856 147.473 15.824C147.537 15.888 147.569 15.984 147.569 16.112C147.569 16.368 147.489 16.496 147.329 16.496ZM128.106 52.016C127.722 52.016 127.29 51.968 126.81 51.872C126.298 51.808 125.85 51.696 125.466 51.536C125.242 51.44 125.178 51.344 125.274 51.248C125.37 51.152 125.482 51.136 125.61 51.2C125.962 51.328 126.33 51.408 126.714 51.44C127.066 51.472 127.434 51.488 127.818 51.488C128.81 51.488 129.866 51.168 130.986 50.528C132.074 49.888 133.194 49.04 134.346 47.984C135.466 46.928 136.57 45.776 137.658 44.528C139.066 42.928 140.442 41.072 141.786 38.96C143.098 36.88 144.299 34.736 145.387 32.528C146.475 30.32 147.355 28.24 148.027 26.288C148.731 24.336 149.131 22.688 149.227 21.344C148.427 22.592 147.691 23.744 147.019 24.8C146.379 25.824 145.611 26.976 144.715 28.256C144.619 28.384 144.539 28.448 144.475 28.448C144.443 28.448 144.411 28.4 144.379 28.304C144.379 28.176 144.395 28.08 144.427 28.016C145.259 26.896 146.027 25.68 146.73 24.368C147.467 23.056 148.059 21.728 148.507 20.384C148.987 19.008 149.211 17.68 149.179 16.4C149.307 16.368 149.419 16.352 149.515 16.352C149.643 16.352 149.755 16.352 149.851 16.352C150.971 16.352 151.531 16.832 151.531 17.792C151.531 18.176 151.403 18.656 151.147 19.232C150.987 19.616 150.747 19.968 150.427 20.288C150.139 20.608 149.819 20.928 149.467 21.248C149.531 21.504 149.579 21.776 149.611 22.064C149.643 22.352 149.659 22.672 149.659 23.024C149.659 23.728 149.579 24.528 149.419 25.424C149.291 26.32 149.051 27.392 148.699 28.64C149.467 27.04 150.363 25.504 151.387 24.032C152.443 22.56 153.483 21.36 154.507 20.432C155.563 19.504 156.459 19.04 157.195 19.04C157.675 19.04 158.107 19.2 158.491 19.52C158.907 19.84 159.243 20.208 159.499 20.624C159.755 21.008 159.883 21.36 159.883 21.68C159.883 22.736 159.531 23.856 158.827 25.04C158.123 26.192 157.211 27.28 156.091 28.304C155.003 29.328 153.851 30.16 152.635 30.8C151.451 31.408 150.363 31.712 149.371 31.712C149.179 31.712 148.971 31.696 148.747 31.664C148.555 31.6 148.283 31.36 147.931 30.944L147.691 31.52C146.507 34.112 145.211 36.704 143.803 39.296C142.426 41.888 140.826 44.224 139.002 46.304C137.178 48.288 135.418 49.728 133.722 50.624C131.994 51.552 130.122 52.016 128.106 52.016ZM148.219 30.56C148.763 30.56 149.307 30.448 149.851 30.224C150.427 29.968 150.875 29.744 151.195 29.552C152.091 29.04 153.019 28.352 153.979 27.488C154.971 26.592 155.867 25.632 156.667 24.608C157.467 23.584 158.043 22.608 158.395 21.68C158.491 21.328 158.539 21.04 158.539 20.816C158.539 20.016 158.187 19.616 157.483 19.616C157.099 19.616 156.651 19.776 156.139 20.096C155.659 20.416 155.179 20.816 154.699 21.296C154.219 21.744 153.787 22.176 153.403 22.592C152.635 23.424 151.883 24.352 151.147 25.376C150.443 26.368 149.819 27.328 149.275 28.256C148.763 29.184 148.411 29.952 148.219 30.56Z" fill="white"/>
</svg>
