<svg width="37" height="38" viewBox="0 0 37 38" fill="none" xmlns="http://www.w3.org/2000/svg">
<path d="M7.64917 30.3856V10.1957C7.64917 8.49538 7.64917 7.64457 7.98008 6.99512C8.27116 6.42385 8.73528 5.95973 9.30655 5.66865C9.956 5.33774 10.8068 5.33774 12.5072 5.33774H26.4731C27.3233 5.33774 27.7489 5.33774 28.0737 5.50319C28.3593 5.64873 28.5901 5.88079 28.7356 6.16643C28.9011 6.49116 28.9016 6.91656 28.9016 7.76674V25.6795C28.9016 26.5297 28.9011 26.9542 28.7356 27.2789C28.5901 27.5646 28.3596 27.7974 28.074 27.9429C27.7496 28.1082 27.3244 28.1082 26.4759 28.1082H11.0647C9.17837 28.1082 7.64917 29.6374 7.64917 31.5238C7.64917 32.1526 8.1589 32.6623 8.78769 32.6623H24.9578C25.8064 32.6623 26.2315 32.6623 26.5559 32.497C26.8416 32.3515 27.072 32.1188 27.2176 31.8332C27.383 31.5085 27.3836 31.0837 27.3836 30.2335V28.1082" stroke="white" stroke-width="2.5" stroke-linecap="round" stroke-linejoin="round"/>
</svg>
