<svg width="42" height="42" viewBox="0 0 42 42" fill="none" xmlns="http://www.w3.org/2000/svg">
<path d="M4.3606 34.5967H7.75978M7.75978 34.5967H24.7557M7.75978 34.5967V11.1427C7.75978 9.23898 7.75978 8.28641 8.13027 7.55928C8.45616 6.91969 8.97579 6.40005 9.61539 6.07416C10.3425 5.70367 11.2951 5.70367 13.1988 5.70367H19.3173C21.2211 5.70367 22.1716 5.70367 22.8987 6.07416C23.5383 6.40005 24.0597 6.91969 24.3856 7.55928C24.7557 8.2857 24.7557 9.23712 24.7557 11.1371V21M24.7557 34.5967H34.9532M24.7557 34.5967V21M34.9532 34.5967H38.3524M34.9532 34.5967V21C34.9532 19.4162 34.9531 18.6247 34.6943 18C34.3493 17.1671 33.6882 16.505 32.8553 16.16C32.2306 15.9012 31.4379 15.9012 29.854 15.9012C28.2702 15.9012 27.4783 15.9012 26.8536 16.16C26.0207 16.505 25.3594 17.1671 25.0144 18C24.7557 18.6247 24.7557 19.4162 24.7557 21M12.8586 17.6008H19.6569M12.8586 12.502H19.6569" stroke="white" stroke-width="2.5" stroke-linecap="round" stroke-linejoin="round"/>
</svg>
