<svg width="38" height="38" viewBox="0 0 38 38" fill="none" xmlns="http://www.w3.org/2000/svg">
<path d="M3.16663 31.6667H6.33329M6.33329 31.6667H14.25M6.33329 31.6667V11.4003C6.33329 9.62682 6.33329 8.73941 6.67844 8.06202C6.98204 7.46618 7.46612 6.98209 8.06197 6.67849C8.73936 6.33334 9.62677 6.33334 11.4003 6.33334H13.9336C15.7071 6.33334 16.5926 6.33334 17.27 6.67849C17.8658 6.98209 18.3516 7.46618 18.6552 8.06202C19 8.73875 19 9.62508 19 11.3951V15.8337M14.25 31.6667H31.6666M14.25 31.6667V22.7496C14.25 21.9178 14.25 21.5017 14.3497 21.1137C14.4381 20.7699 14.5836 20.4438 14.7803 20.1482C15.0021 19.8149 15.3126 19.5359 15.9307 18.9805L19.5749 15.7066C20.7699 14.6331 21.3678 14.0959 22.0439 13.8921C22.6399 13.7124 23.2761 13.7124 23.8721 13.8921C24.5488 14.096 25.1475 14.6335 26.3445 15.7089L29.9862 18.9805C30.605 19.5365 30.9138 19.8147 31.1357 20.1482C31.3324 20.4438 31.4777 20.7699 31.5661 21.1137C31.6659 21.5017 31.6666 21.9178 31.6666 22.7496V31.6667M31.6666 31.6667H34.8333" stroke="white" stroke-width="2.5" stroke-linecap="round" stroke-linejoin="round"/>
</svg>
