<svg width="42" height="42" viewBox="0 0 42 42" fill="none" xmlns="http://www.w3.org/2000/svg">
<path d="M3.5 35H7M7 35H24.5M7 35V10.8503C7 8.89016 7 7.90934 7.38148 7.16064C7.71703 6.50208 8.25208 5.96703 8.91064 5.63148C9.65934 5.25 10.6402 5.25 12.6003 5.25H18.9003C20.8605 5.25 21.8392 5.25 22.5879 5.63148C23.2465 5.96703 23.7833 6.50208 24.1189 7.16064C24.5 7.9086 24.5 8.88824 24.5 10.8446V21M24.5 35H35M24.5 35V21M35 35H38.5M35 35V21C35 19.3692 34.9998 18.5542 34.7334 17.911C34.3782 17.0534 33.6974 16.3716 32.8398 16.0164C32.1966 15.75 31.3803 15.75 29.7495 15.75C28.1188 15.75 27.3034 15.75 26.6602 16.0164C25.8026 16.3716 25.1216 17.0534 24.7664 17.911C24.5 18.5542 24.5 19.3692 24.5 21M12.25 17.5H19.25M12.25 12.25H19.25" stroke="url(#paint0_linear_140_86)" stroke-width="2" stroke-linecap="round" stroke-linejoin="round"/>
<defs>
<linearGradient id="paint0_linear_140_86" x1="22.7781" y1="0.704861" x2="44.3765" y2="27.0451" gradientUnits="userSpaceOnUse">
<stop stop-color="#ECD28B"/>
<stop offset="1" stop-color="#86774F"/>
</linearGradient>
</defs>
</svg>
