<svg width="38" height="38" viewBox="0 0 38 38" fill="none" xmlns="http://www.w3.org/2000/svg">
<path d="M19 12.6668L6.33337 25.3335V31.6668L12.6667 31.6668L25.3334 19.0002M19 12.6668L23.542 8.12481L23.5448 8.12211C24.17 7.49688 24.4832 7.18371 24.8442 7.06642C25.1622 6.96309 25.5048 6.96309 25.8228 7.06642C26.1835 7.18363 26.4963 7.49644 27.1207 8.12079L29.8753 10.8755C30.5024 11.5025 30.816 11.8162 30.9335 12.1777C31.0368 12.4957 31.0368 12.8382 30.9334 13.1562C30.8161 13.5175 30.5029 13.8307 29.8768 14.4568L29.8754 14.4581L25.3334 19.0002M19 12.6668L25.3334 19.0002" stroke="white" stroke-width="2.5" stroke-linecap="round" stroke-linejoin="round"/>
</svg>
