<svg width="42" height="42" viewBox="0 0 42 42" fill="none" xmlns="http://www.w3.org/2000/svg">
<path d="M26.25 19.25L19.25 26.25L15.75 22.75M7 29.4002V20.0413C7 19.1062 7 18.6384 7.1137 18.2033C7.21446 17.8177 7.38114 17.4528 7.60498 17.123C7.85757 16.7509 8.20862 16.4423 8.91235 15.8266L17.3151 8.47414C18.6197 7.33262 19.2721 6.76183 20.0067 6.54457C20.6546 6.35298 21.3451 6.35298 21.9929 6.54457C22.7281 6.76199 23.3814 7.33332 24.688 8.47657L33.088 15.8266C33.7917 16.4423 34.1429 16.7509 34.3955 17.123C34.6193 17.4527 34.7847 17.8177 34.8855 18.2033C34.9992 18.6384 35 19.1062 35 20.0413V29.4063C35 31.3626 35 32.3419 34.6189 33.0898C34.2833 33.7484 33.7465 34.2834 33.0879 34.6189C32.34 35 31.3618 35 29.4054 35H12.5946C10.6382 35 9.6586 35 8.91064 34.6189C8.25208 34.2834 7.71703 33.7484 7.38148 33.0898C7 32.3412 7 31.3604 7 29.4002Z" stroke="url(#paint0_linear_140_92)" stroke-width="2" stroke-linecap="round" stroke-linejoin="round"/>
<defs>
<linearGradient id="paint0_linear_140_92" x1="22.4225" y1="2.03157" x2="43.5933" y2="23.5178" gradientUnits="userSpaceOnUse">
<stop stop-color="#ECD28B"/>
<stop offset="1" stop-color="#86774F"/>
</linearGradient>
</defs>
</svg>
