<svg width="38" height="38" viewBox="0 0 38 38" fill="none" xmlns="http://www.w3.org/2000/svg">
<path d="M23.75 17.4168L17.4167 23.7501L14.25 20.5835M6.33337 26.6003V18.1327C6.33337 17.2866 6.33337 16.8634 6.43625 16.4697C6.52741 16.1208 6.67821 15.7907 6.88074 15.4923C7.10927 15.1557 7.42689 14.8765 8.0636 14.3194L15.6661 7.66719C16.8465 6.63439 17.4367 6.11795 18.1014 5.92138C18.6875 5.74805 19.3123 5.74805 19.8984 5.92138C20.5636 6.1181 21.1547 6.63502 22.3368 7.66939L29.9368 14.3194C30.5735 14.8765 30.8912 15.1557 31.1198 15.4923C31.3223 15.7907 31.4719 16.1208 31.5631 16.4697C31.666 16.8634 31.6667 17.2867 31.6667 18.1327V26.6058C31.6667 28.3758 31.6667 29.2618 31.3219 29.9385C31.0183 30.5344 30.5326 31.0184 29.9367 31.322C29.26 31.6668 28.375 31.6668 26.6049 31.6668H11.3951C9.62511 31.6668 8.73878 31.6668 8.06205 31.322C7.46621 31.0184 6.98212 30.5344 6.67852 29.9385C6.33337 29.2612 6.33337 28.3738 6.33337 26.6003Z" stroke="white" stroke-width="2.5" stroke-linecap="round" stroke-linejoin="round"/>
</svg>
