<svg width="39" height="38" viewBox="0 0 39 38" fill="none" xmlns="http://www.w3.org/2000/svg">
<path d="M3.82239 31.6668H6.98905M6.98905 31.6668H16.4891M6.98905 31.6668V18.1327C6.98905 17.2866 6.98905 16.8634 7.09193 16.4697C7.18309 16.1208 7.33389 15.7907 7.53642 15.4923C7.76495 15.1557 8.08257 14.8765 8.71928 14.3194L16.3218 7.6672C17.5021 6.63439 18.0924 6.11795 18.7571 5.92138C19.3432 5.74805 19.9679 5.74805 20.5541 5.92138C21.2193 6.1181 21.8103 6.63502 22.9925 7.66939L30.5925 14.3194C31.2292 14.8765 31.5469 15.1557 31.7755 15.4923C31.978 15.7907 32.1276 16.1208 32.2188 16.4697C32.3217 16.8634 32.3224 17.2866 32.3224 18.1327V31.6668M16.4891 31.6668H22.8224M16.4891 31.6668V25.3335C16.4891 23.5846 17.9068 22.1668 19.6557 22.1668C21.4046 22.1668 22.8224 23.5846 22.8224 25.3335V31.6668M22.8224 31.6668H32.3224M32.3224 31.6668H35.4891" stroke="white" stroke-width="2.5" stroke-linecap="round" stroke-linejoin="round"/>
</svg>
