<svg width="41" height="40" viewBox="0 0 41 40" fill="none" xmlns="http://www.w3.org/2000/svg">
<path d="M15.7641 34.9813H25.7517M20.7579 5.01874C15.242 5.01874 10.7704 9.4903 10.7704 15.0063C10.7704 17.0279 11.371 18.9093 12.4036 20.4816C13.9915 22.8994 14.7847 24.1076 14.8878 24.2882C15.8046 25.8944 15.6358 25.3278 15.7511 27.1737C15.7641 27.3812 15.7641 27.6952 15.7641 28.323C15.7641 29.2423 16.5094 29.9876 17.4287 29.9876L24.0871 29.9876C25.0064 29.9876 25.7517 29.2423 25.7517 28.323C25.7517 27.6952 25.7517 27.3812 25.7646 27.1737C25.88 25.3278 25.7102 25.8944 26.627 24.2882C26.7301 24.1076 27.5247 22.8994 29.1125 20.4816C30.1451 18.9092 30.7458 17.0279 30.7458 15.0063C30.7458 9.4903 26.2739 5.01874 20.7579 5.01874Z" stroke="white" stroke-width="2.5" stroke-linecap="round" stroke-linejoin="round"/>
</svg>
