<svg width="42" height="42" viewBox="0 0 42 42" fill="none" xmlns="http://www.w3.org/2000/svg">
<path d="M12.0708 31.7831C14.4943 33.7923 17.6062 35 21.0002 35C28.7322 35 35.0002 28.732 35.0002 21C35.0002 20.0042 34.8963 19.0326 34.6986 18.0956M12.0708 31.7831C8.97323 29.2152 7.00024 25.338 7.00024 21C7.00024 13.268 13.2683 7 21.0002 7C27.7364 7 33.3614 11.7574 34.6986 18.0956M12.0708 31.7831C15.493 31.0008 19.5642 29.3699 23.6705 26.9992C28.4487 24.2405 32.3352 21.0218 34.6986 18.0956M12.0708 31.7831C7.81976 32.755 4.57029 32.4175 3.49939 30.5627C2.39634 28.6521 3.84355 25.5446 6.99999 22.2407M34.6986 18.0956C36.8893 15.3832 37.7712 12.9221 36.8414 11.3115C35.8985 9.67839 33.2667 9.22142 29.7494 9.79875" stroke="url(#paint0_linear_140_95)" stroke-width="2" stroke-linecap="round" stroke-linejoin="round"/>
<defs>
<linearGradient id="paint0_linear_140_95" x1="21.9015" y1="2.72222" x2="42.084" y2="28.1833" gradientUnits="userSpaceOnUse">
<stop stop-color="#ECD28B"/>
<stop offset="1" stop-color="#86774F"/>
</linearGradient>
</defs>
</svg>
