<svg width="38" height="38" viewBox="0 0 38 38" fill="none" xmlns="http://www.w3.org/2000/svg">
<path d="M26.9167 31.6667C26.9167 29.0433 23.3723 26.9167 19 26.9167C14.6277 26.9167 11.0833 29.0433 11.0833 31.6667M33.25 26.9172C33.25 24.9694 31.296 23.2955 28.5 22.5625M4.75 26.9172C4.75 24.9694 6.70398 23.2955 9.5 22.5625M28.5 16.2072C29.4718 15.3374 30.0833 14.0734 30.0833 12.6667C30.0833 10.0433 27.9567 7.91666 25.3333 7.91666C24.1168 7.91666 23.007 8.37401 22.1667 9.12615M9.5 16.2072C8.52823 15.3374 7.91667 14.0734 7.91667 12.6667C7.91667 10.0433 10.0433 7.91666 12.6667 7.91666C13.8832 7.91666 14.993 8.37401 15.8333 9.12615M19 22.1667C16.3766 22.1667 14.25 20.04 14.25 17.4167C14.25 14.7933 16.3766 12.6667 19 12.6667C21.6234 12.6667 23.75 14.7933 23.75 17.4167C23.75 20.04 21.6234 22.1667 19 22.1667Z" stroke="white" stroke-width="2.5" stroke-linecap="round" stroke-linejoin="round"/>
</svg>
